<svg width="1920" height="1357" viewBox="0 0 1920 1357" fill="none" xmlns="http://www.w3.org/2000/svg">
<g clip-path="url(#clip0_123_339)">
<rect width="1920" height="1357" fill="url(#paint0_linear_123_339)"/>
<path opacity="0.51" d="M2087.29 891.338C2047.15 1479.83 1348.22 2370.55 658.811 2058.4C164.742 1834.69 -331.462 1099.54 -123.632 535.811C404.779 1375.34 2127.44 302.82 2087.29 891.338Z" fill="url(#paint1_linear_123_339)" fill-opacity="0.7"/>
<path opacity="0.51" d="M2090.46 510.325C2196.88 1090.66 1739.17 2123.72 993.617 1988.15C459.313 1890.99 -203.368 1298.44 -141.076 701.478C578.61 1387.42 1984.04 -70.036 2090.46 510.325Z" fill="url(#paint2_linear_123_339)" fill-opacity="0.7"/>
<path d="M1406.04 -677.028C1386.48 -227.424 870.116 464.839 338.417 239.467C-42.6281 77.9439 -434.91 -473.628 -286.983 -907.431C131.825 -276.843 1425.6 -1126.65 1406.04 -677.028Z" fill="url(#paint3_linear_123_339)" fill-opacity="0.7"/>
<g opacity="0.5">
<rect x="582.056" y="297" width="833.422" height="524.211" rx="22.6946" fill="white"/>
<circle cx="624.334" cy="337.564" r="9.36092" fill="#FF6C90"/>
<circle cx="655.533" cy="337.564" r="9.36092" fill="#FFA724"/>
<circle cx="686.732" cy="337.564" r="9.36092" fill="#39D7A8"/>
</g>
<rect x="494.674" y="377.1" width="972.478" height="611.676" rx="22.6946" fill="white"/>
<circle cx="543.999" cy="424.433" r="10.9228" fill="#FF6C90"/>
<circle cx="580.406" cy="424.433" r="10.9228" fill="#FFA724"/>
<circle cx="616.82" cy="424.433" r="10.9228" fill="#39D7A8"/>
<rect x="538.362" y="465.057" width="881.105" height="196.61" rx="17.0209" fill="#D9D9D9"/>
<rect x="545.643" y="691.287" width="269.429" height="233.019" rx="17.0209" fill="#D9D9D9"/>
<rect x="858.762" y="742.996" width="422.348" height="21.8456" rx="10.9228" fill="#D9D9D9"/>
<rect x="858.762" y="793.971" width="211.174" height="21.8456" rx="10.9228" fill="#D9D9D9"/>
<rect x="858.762" y="844.944" width="320.402" height="21.8456" rx="10.9228" fill="#D9D9D9"/>
<rect x="1137.5" y="536.158" width="219.766" height="51.7097" rx="25.8549" fill="url(#paint4_linear_123_339)"/>
<g filter="url(#filter0_d_123_339)">
<rect x="1324.95" y="788.242" width="258.549" height="271.476" rx="28.3682" fill="url(#paint5_linear_123_339)"/>
</g>
<g clip-path="url(#clip1_123_339)">
<path d="M1432.54 858.67L1438.33 852.879L1485.15 899.699C1487.25 901.792 1488.29 904.348 1488.29 907.366C1488.29 910.385 1487.26 912.916 1485.2 914.958L1461.23 938.927C1459.16 940.992 1456.74 942.025 1453.95 942.025C1451.17 942.025 1448.75 940.992 1446.68 938.927L1422.71 914.958C1420.65 912.913 1419.62 910.38 1419.62 907.358C1419.62 904.335 1420.65 901.802 1422.71 899.757L1448.16 874.29L1432.54 858.67ZM1453.95 880.081L1427.16 906.878H1480.75L1453.95 880.081ZM1499.44 944.314C1496.77 944.314 1494.49 943.365 1492.6 941.466C1490.72 939.567 1489.77 937.285 1489.77 934.618C1489.77 933.061 1490.13 931.392 1490.85 929.612C1491.57 927.833 1492.56 926 1493.81 924.115C1494.53 922.948 1495.41 921.691 1496.44 920.344C1497.47 918.998 1498.48 917.741 1499.47 916.574C1500.46 917.741 1501.47 918.998 1502.5 920.344C1503.53 921.691 1504.41 922.948 1505.13 924.115C1506.38 926 1507.37 927.833 1508.09 929.612C1508.81 931.392 1509.17 933.061 1509.17 934.618C1509.17 937.285 1508.21 939.567 1506.31 941.466C1504.4 943.365 1502.12 944.314 1499.44 944.314ZM1408.98 982.288V965.994H1516.71V982.288H1408.98Z" fill="white"/>
</g>
<g filter="url(#filter1_d_123_339)">
<rect x="336" y="503.839" width="271.476" height="285.05" rx="28.3682" fill="url(#paint6_linear_123_339)"/>
</g>
<path d="M452.676 668.854L460.419 661.112L444.055 644.748L460.243 628.56L452.5 620.818L428.57 644.748L452.676 668.854ZM488.22 668.854L512.326 644.748L488.22 620.642L480.478 628.384L496.842 644.748L480.478 661.112L488.22 668.854ZM417.661 708.092C414.846 708.092 412.382 707.037 410.271 704.925C408.159 702.814 407.104 700.35 407.104 697.535V591.961C407.104 589.145 408.159 586.682 410.271 584.571C412.382 582.459 414.846 581.403 417.661 581.403H523.235C526.051 581.403 528.514 582.459 530.625 584.571C532.737 586.682 533.793 589.145 533.793 591.961V697.535C533.793 700.35 532.737 702.814 530.625 704.925C528.514 707.037 526.051 708.092 523.235 708.092H417.661ZM417.661 697.535H523.235V591.961H417.661V697.535Z" fill="white"/>
</g>
<defs>
<filter id="filter0_d_123_339" x="1132.04" y="618.033" width="644.356" height="657.284" filterUnits="userSpaceOnUse" color-interpolation-filters="sRGB">
<feFlood flood-opacity="0" result="BackgroundImageFix"/>
<feColorMatrix in="SourceAlpha" type="matrix" values="0 0 0 0 0 0 0 0 0 0 0 0 0 0 0 0 0 0 127 0" result="hardAlpha"/>
<feOffset dy="22.6946"/>
<feGaussianBlur stdDeviation="96.4519"/>
<feComposite in2="hardAlpha" operator="out"/>
<feColorMatrix type="matrix" values="0 0 0 0 0 0 0 0 0 0 0 0 0 0 0 0 0 0 0.25 0"/>
<feBlend mode="normal" in2="BackgroundImageFix" result="effect1_dropShadow_123_339"/>
<feBlend mode="normal" in="SourceGraphic" in2="effect1_dropShadow_123_339" result="shape"/>
</filter>
<filter id="filter1_d_123_339" x="143.096" y="333.63" width="657.284" height="670.858" filterUnits="userSpaceOnUse" color-interpolation-filters="sRGB">
<feFlood flood-opacity="0" result="BackgroundImageFix"/>
<feColorMatrix in="SourceAlpha" type="matrix" values="0 0 0 0 0 0 0 0 0 0 0 0 0 0 0 0 0 0 127 0" result="hardAlpha"/>
<feOffset dy="22.6946"/>
<feGaussianBlur stdDeviation="96.4519"/>
<feComposite in2="hardAlpha" operator="out"/>
<feColorMatrix type="matrix" values="0 0 0 0 0 0 0 0 0 0 0 0 0 0 0 0 0 0 0.25 0"/>
<feBlend mode="normal" in2="BackgroundImageFix" result="effect1_dropShadow_123_339"/>
<feBlend mode="normal" in="SourceGraphic" in2="effect1_dropShadow_123_339" result="shape"/>
</filter>
<linearGradient id="paint0_linear_123_339" x1="2017.43" y1="1260.48" x2="196.338" y2="-252.38" gradientUnits="userSpaceOnUse">
<stop stop-color="#3BDF53"/>
<stop offset="0.96875" stop-color="#1AA9A4"/>
</linearGradient>
<linearGradient id="paint1_linear_123_339" x1="1778.19" y1="500.048" x2="430.001" y2="2309.37" gradientUnits="userSpaceOnUse">
<stop stop-color="white" stop-opacity="0.38"/>
<stop offset="1" stop-color="white" stop-opacity="0"/>
</linearGradient>
<linearGradient id="paint2_linear_123_339" x1="1694.11" y1="205.847" x2="828.858" y2="2284.92" gradientUnits="userSpaceOnUse">
<stop stop-color="white" stop-opacity="0.38"/>
<stop offset="1" stop-color="white" stop-opacity="0"/>
</linearGradient>
<linearGradient id="paint3_linear_123_339" x1="1162.92" y1="-969.776" x2="168.413" y2="434.968" gradientUnits="userSpaceOnUse">
<stop stop-color="white" stop-opacity="0.38"/>
<stop offset="1" stop-color="white" stop-opacity="0"/>
</linearGradient>
<linearGradient id="paint4_linear_123_339" x1="1409.46" y1="605.719" x2="1342.89" y2="415.22" gradientUnits="userSpaceOnUse">
<stop stop-color="#712DF8"/>
<stop offset="0.950033" stop-color="#FF3DBA"/>
<stop offset="0.96875" stop-color="#FFC7EB"/>
</linearGradient>
<linearGradient id="paint5_linear_123_339" x1="1644.9" y1="1153.44" x2="1134.94" y2="826.418" gradientUnits="userSpaceOnUse">
<stop stop-color="#712DF8"/>
<stop offset="0.766426" stop-color="#FF3DBA"/>
<stop offset="0.96875" stop-color="#FFC7EB"/>
</linearGradient>
<linearGradient id="paint6_linear_123_339" x1="671.952" y1="887.299" x2="136.495" y2="543.924" gradientUnits="userSpaceOnUse">
<stop stop-color="#712DF8"/>
<stop offset="0.766426" stop-color="#FF3DBA"/>
<stop offset="0.96875" stop-color="#FFC7EB"/>
</linearGradient>
<clipPath id="clip0_123_339">
<rect width="1920" height="1357" fill="white"/>
</clipPath>
<clipPath id="clip1_123_339">
<rect width="129.274" height="129.274" fill="white" transform="translate(1389.58 852.879)"/>
</clipPath>
</defs>
</svg>
